<?xml version="1.0" ?><svg height="32px" id="Email" style="enable-background:new 0 0 32 32;" version="1.0" viewBox="0 0 32 32" width="32px" xml:space="preserve" xmlns="http://www.w3.org/2000/svg" xmlns:xlink="http://www.w3.org/1999/xlink"><style type="text/css">
	.Drop_x0020_Shadow{fill:none;}
	.Round_x0020_Corners_x0020_2_x0020_pt{fill:#FFFFFF;stroke:#000000;stroke-miterlimit:10;}
	.Live_x0020_Reflect_x0020_X{fill:none;}
	.Bevel_x0020_Soft{fill:url(#SVGID_1_);}
	.Dusk{fill:#FFFFFF;}
	.Foliage_GS{fill:#FFDD00;}
	.Pompadour_GS{fill-rule:evenodd;clip-rule:evenodd;fill:#44ADE2;}
	.st0{fill:#BE1E2D;}
	.st1{fill:#FFFFFF;}
</style><linearGradient gradientUnits="userSpaceOnUse" id="SVGID_1_" x1="-141" x2="-140.2929" y1="-141" y2="-140.2929"><stop offset="0" style="stop-color:#DEDFE3"/><stop offset="0.1738" style="stop-color:#D8D9DD"/><stop offset="0.352" style="stop-color:#C9CACD"/><stop offset="0.5323" style="stop-color:#B4B5B8"/><stop offset="0.7139" style="stop-color:#989A9C"/><stop offset="0.8949" style="stop-color:#797C7E"/><stop offset="1" style="stop-color:#656B6C"/></linearGradient><g id="XMLID_22_"><circle class="st0" cx="16" cy="16.4" id="XMLID_843_" r="15.1"/><g id="XMLID_762_"><path class="st1" d="M21.4,26.2c-1.7,0.9-3.4,1.2-5.5,1.2c-5.1,0-9.4-3.7-9.4-9.6C6.5,11.5,10.9,6,17.8,6    c5.4,0,9,3.8,9,8.9c0,4.6-2.6,7.4-5.5,7.4c-1.2,0-2.4-0.8-2.3-2.7h-0.1c-1.1,1.8-2.5,2.7-4.4,2.7c-1.8,0-3.3-1.5-3.3-3.9    c0-3.8,3-7.3,7.3-7.3c1.3,0,2.5,0.3,3.3,0.6l-1.1,5.6c-0.5,2.3-0.1,3.4,0.9,3.5c1.6,0,3.3-2.1,3.3-5.7c0-4.5-2.7-7.7-7.5-7.7    c-5,0-9.3,4-9.3,10.3c0,5.2,3.4,8.3,7.9,8.3c1.8,0,3.4-0.4,4.7-1.1L21.4,26.2z M19.7,12.9c-0.3-0.1-0.8-0.2-1.5-0.2    c-2.7,0-4.9,2.6-4.9,5.6c0,1.4,0.7,2.3,2,2.3c1.8,0,3.4-2.3,3.8-4.2L19.7,12.9z" id="XMLID_763_"/></g></g></svg>