<?xml version="1.0" ?><svg height="32px" id="Instagram" style="enable-background:new 0 0 32 32;" version="1.0" viewBox="0 0 32 32" width="32px" xml:space="preserve" xmlns="http://www.w3.org/2000/svg" xmlns:xlink="http://www.w3.org/1999/xlink"><style type="text/css">
	.Drop_x0020_Shadow{fill:none;}
	.Round_x0020_Corners_x0020_2_x0020_pt{fill:#FFFFFF;stroke:#000000;stroke-miterlimit:10;}
	.Live_x0020_Reflect_x0020_X{fill:none;}
	.Bevel_x0020_Soft{fill:url(#SVGID_1_);}
	.Dusk{fill:#FFFFFF;}
	.Foliage_GS{fill:#FFDD00;}
	.Pompadour_GS{fill-rule:evenodd;clip-rule:evenodd;fill:#44ADE2;}
	.st0{fill:#BE1E2D;}
	.st1{fill:#FFFFFF;}
</style><linearGradient gradientUnits="userSpaceOnUse" id="SVGID_1_" x1="-94" x2="-93.2929" y1="-47" y2="-46.2929"><stop offset="0" style="stop-color:#DEDFE3"/><stop offset="0.1738" style="stop-color:#D8D9DD"/><stop offset="0.352" style="stop-color:#C9CACD"/><stop offset="0.5323" style="stop-color:#B4B5B8"/><stop offset="0.7139" style="stop-color:#989A9C"/><stop offset="0.8949" style="stop-color:#797C7E"/><stop offset="1" style="stop-color:#656B6C"/></linearGradient><g id="XMLID_9_"><circle class="st0" cx="16" cy="16.1" id="XMLID_853_" r="15.1"/><g id="XMLID_817_"><path class="st1" d="M11.2,6.2c3,0,6,0,9,0c0.2,0.1,0.5,0.1,0.7,0.2c1.9,0.4,3.2,1.5,3.8,3.3    c0.2,0.5,0.2,1,0.3,1.5c0,2.9,0,5.9,0,8.8c-0.2,1.1-0.5,2.2-1.2,3.1c-1.2,1.4-2.7,1.9-4.5,1.9c-2.5,0-5,0-7.5,0    c-1.4,0-2.6-0.3-3.7-1.2c-1.4-1.2-1.9-2.7-1.9-4.5c0-2.3,0-4.7,0-7c0-0.5,0-1,0.1-1.5C6.6,8.6,8,7,10.1,6.5    C10.5,6.4,10.8,6.3,11.2,6.2z M8.1,15.7c0,1.3,0,2.6,0,3.9c0,2.3,1.4,3.7,3.7,3.7c2.6,0.1,5.2,0.1,7.8,0c2.3,0,3.6-1.4,3.7-3.7    c0.1-2.6,0.1-5.2,0-7.8c-0.1-2.3-1.4-3.6-3.7-3.7C17,8,14.4,8,11.8,8.1c-2.3,0-3.7,1.4-3.7,3.7C8.1,13,8.1,14.3,8.1,15.7z" id="XMLID_822_"/><path class="st1" d="M10.8,15.7c0-2.7,2.2-4.9,4.9-4.9c2.7,0,4.9,2.3,4.9,4.9c0,2.7-2.2,4.9-4.9,4.9    C13,20.6,10.8,18.3,10.8,15.7z M15.7,12.6c-1.7,0-3.1,1.4-3.1,3c0,1.7,1.4,3.1,3,3.1c1.7,0,3.1-1.4,3.1-3.1    C18.7,14,17.4,12.6,15.7,12.6z" id="XMLID_819_"/><path class="st1" d="M19.5,10.6c0-0.7,0.5-1.2,1.2-1.2c0.6,0,1.2,0.6,1.2,1.2c0,0.6-0.5,1.2-1.2,1.2    C20.1,11.8,19.5,11.3,19.5,10.6z" id="XMLID_818_"/></g></g></svg>