<?xml version="1.0" ?><svg height="32px" id="Linkedin" style="enable-background:new 0 0 32 32;" version="1.0" viewBox="0 0 32 32" width="32px" xml:space="preserve" xmlns="http://www.w3.org/2000/svg" xmlns:xlink="http://www.w3.org/1999/xlink"><style type="text/css">
	.Drop_x0020_Shadow{fill:none;}
	.Round_x0020_Corners_x0020_2_x0020_pt{fill:#FFFFFF;stroke:#000000;stroke-miterlimit:10;}
	.Live_x0020_Reflect_x0020_X{fill:none;}
	.Bevel_x0020_Soft{fill:url(#SVGID_1_);}
	.Dusk{fill:#FFFFFF;}
	.Foliage_GS{fill:#FFDD00;}
	.Pompadour_GS{fill-rule:evenodd;clip-rule:evenodd;fill:#44ADE2;}
	.st0{fill:#BE1E2D;}
	.st1{fill:#FFFFFF;}
</style><linearGradient gradientUnits="userSpaceOnUse" id="SVGID_1_" x1="0" x2="0.7071" y1="-47" y2="-46.2929"><stop offset="0" style="stop-color:#DEDFE3"/><stop offset="0.1738" style="stop-color:#D8D9DD"/><stop offset="0.352" style="stop-color:#C9CACD"/><stop offset="0.5323" style="stop-color:#B4B5B8"/><stop offset="0.7139" style="stop-color:#989A9C"/><stop offset="0.8949" style="stop-color:#797C7E"/><stop offset="1" style="stop-color:#656B6C"/></linearGradient><g id="XMLID_7_"><circle class="st0" cx="16" cy="16.1" id="XMLID_870_" r="15.1"/><g id="WVZJQi.tif_4_"><g id="XMLID_859_"><path class="st1" d="M17.3,13.5c0-0.1,0-0.1,0-0.2c0,0.1,0,0,0.1,0c0.1-0.2,0.3-0.4,0.4-0.5     c0.3-0.3,0.6-0.6,0.9-0.8c0.1-0.1,0.3-0.2,0.4-0.2c0.1-0.1,0.2-0.1,0.3-0.1c0.1,0,0.3-0.1,0.4-0.1c0.1,0,0.2-0.1,0.2-0.1     c0.2,0,0.3-0.1,0.5-0.1c0.2,0,0.4,0,0.6,0c0.2,0,0.4,0,0.6,0c0.1,0,0.2,0,0.3,0c0.1,0,0.3,0,0.4,0.1c0.1,0,0.2,0,0.3,0.1     c0.2,0,0.4,0.1,0.5,0.1c0.1,0,0.2,0.1,0.3,0.1c0.2,0.1,0.5,0.2,0.7,0.4c0.3,0.2,0.6,0.5,0.9,0.8c0.1,0.2,0.2,0.3,0.3,0.5     c0.1,0.1,0.2,0.3,0.2,0.4c0,0.1,0.1,0.2,0.1,0.3c0,0.1,0,0.1,0.1,0.2c0.1,0.2,0.1,0.3,0.1,0.5c0.1,0.2,0.1,0.4,0.1,0.6     c0,0.1,0,0.2,0.1,0.3c0.1,0.2,0,0.4,0.1,0.5c0.1,0.4,0,0.7,0.1,1.1c0.1,0.9,0,1.8,0,2.6c0,0.9,0,1.8,0,2.6c0,0.9,0,1.8,0,2.6     c0,0.2,0,0.2-0.2,0.2c-1.3,0-2.6,0-3.9,0c-0.3,0-0.3,0-0.3-0.3c0-2.3,0-4.7,0-7c0-0.2,0-0.5,0-0.7c0-0.2,0-0.4-0.1-0.5     c0-0.1,0-0.2-0.1-0.2c0-0.2-0.1-0.4-0.2-0.5c-0.1-0.2-0.2-0.4-0.4-0.5c-0.1-0.1-0.3-0.2-0.5-0.3c-0.2-0.1-0.4-0.1-0.5-0.1     c-0.2,0-0.3,0-0.5,0c-0.2,0-0.3,0-0.5,0c-0.2,0-0.3,0.1-0.5,0.1c-0.4,0.1-0.6,0.3-0.9,0.7c-0.1,0.2-0.2,0.4-0.3,0.5     c-0.1,0.2-0.2,0.5-0.2,0.8c-0.1,0.3-0.1,0.6-0.1,0.9c-0.1,0.8,0,1.6,0,2.4c0,1.5,0,3.1,0,4.6c0,0,0,0.1,0,0.1     c0,0.1,0,0.1-0.1,0.1c-0.8,0-1.6,0-2.5,0c-0.5,0-1,0-1.6,0c-0.2,0-0.2,0-0.2-0.2c0-4.5,0-8.9,0-13.4c0-0.1,0-0.2,0.2-0.2     c1.3,0,2.6,0,3.8,0c0.1,0,0.1,0,0.1,0.1C17.3,12.4,17.3,12.9,17.3,13.5C17.3,13.4,17.3,13.5,17.3,13.5z" id="XMLID_862_"/><path class="st1" d="M10.6,18.6c0,2.2,0,4.5,0,6.7c0,0.1,0,0.2-0.2,0.2c-1.3,0-2.7,0-4,0c-0.1,0-0.2-0.1-0.2-0.2     c0-0.4,0-0.8,0-1.2c0-4.1,0-8.1,0-12.2c0-0.1,0-0.1,0.1-0.2c0,0,0,0,0.1,0c0,0,0,0,0.1,0c1.3,0,2.7,0,4,0c0.2,0,0.2,0,0.2,0.2     C10.6,14.1,10.6,16.3,10.6,18.6z" id="XMLID_861_"/><path class="st1" d="M8.5,9.9c-0.1,0-0.2,0-0.4,0C8,9.9,7.8,9.8,7.7,9.8c-0.1,0-0.2-0.1-0.3-0.1     C7.2,9.6,7.1,9.5,6.9,9.4C6.6,9.1,6.4,8.9,6.2,8.5C6.2,8.4,6.1,8.3,6.1,8.2C6,8.1,6,8,6,7.9c0-0.1,0-0.1,0-0.2c0-0.2,0-0.4,0-0.7     C6,6.9,6,6.8,6.1,6.7c0-0.1,0.1-0.2,0.1-0.3C6.2,6.2,6.3,6.1,6.4,6c0.2-0.4,0.5-0.6,0.9-0.8C7.4,5.1,7.5,5.1,7.7,5     C7.8,5,7.9,4.9,8,4.9c0.1,0,0.3,0,0.4,0c0.2,0,0.4,0,0.7,0.1C9.3,5,9.5,5.1,9.7,5.2c0.3,0.2,0.5,0.4,0.8,0.7     c0.2,0.2,0.3,0.4,0.4,0.7c0.1,0.2,0.1,0.3,0.1,0.5c0,0.1,0,0.3,0,0.4c0,0.2,0,0.3-0.1,0.5c0,0.1,0,0.2-0.1,0.2     c0,0.1-0.1,0.3-0.2,0.4c-0.2,0.3-0.4,0.5-0.7,0.8C9.8,9.5,9.5,9.7,9.3,9.8C9,9.9,8.8,9.9,8.5,9.9z" id="XMLID_860_"/></g></g></g></svg>