<?xml version="1.0" ?><svg height="32px" id="Medium" style="enable-background:new 0 0 32 32;" version="1.0" viewBox="0 0 32 32" width="32px" xml:space="preserve" xmlns="http://www.w3.org/2000/svg" xmlns:xlink="http://www.w3.org/1999/xlink"><style type="text/css">
	.Drop_x0020_Shadow{fill:none;}
	.Round_x0020_Corners_x0020_2_x0020_pt{fill:#FFFFFF;stroke:#000000;stroke-miterlimit:10;}
	.Live_x0020_Reflect_x0020_X{fill:none;}
	.Bevel_x0020_Soft{fill:url(#SVGID_1_);}
	.Dusk{fill:#FFFFFF;}
	.Foliage_GS{fill:#FFDD00;}
	.Pompadour_GS{fill-rule:evenodd;clip-rule:evenodd;fill:#44ADE2;}
	.st0{fill:#BE1E2D;}
	.st1{fill:#FFFFFF;}
</style><linearGradient gradientUnits="userSpaceOnUse" id="SVGID_1_" x1="-188" x2="-187.2929" y1="-188" y2="-187.2929"><stop offset="0" style="stop-color:#DEDFE3"/><stop offset="0.1738" style="stop-color:#D8D9DD"/><stop offset="0.352" style="stop-color:#C9CACD"/><stop offset="0.5323" style="stop-color:#B4B5B8"/><stop offset="0.7139" style="stop-color:#989A9C"/><stop offset="0.8949" style="stop-color:#797C7E"/><stop offset="1" style="stop-color:#656B6C"/></linearGradient><g id="XMLID_29_"><circle class="st0" cx="16.5" cy="16" id="XMLID_840_" r="15.1"/><g id="XMLID_734_"><path class="st1" d="M13.2,17.6c0,2.2,0,4.4,0,6.6c0,0.1,0,0.1,0,0.2c-0.1,0.2-0.3,0.3-0.5,0.2    c-0.3-0.2-0.7-0.3-1-0.5c-0.8-0.4-1.5-0.8-2.3-1.1c-0.8-0.4-1.6-0.8-2.4-1.2c-0.3-0.1-0.4-0.4-0.4-0.7c0,0,0-0.1,0-0.1    c0-4.3,0-8.5,0-12.8c0-0.1,0-0.2,0-0.2c0-0.2,0.2-0.3,0.3-0.2C7.1,7.8,7.4,7.9,7.6,8c1,0.5,2,1,3,1.5c0.8,0.4,1.6,0.8,2.5,1.2    c0.1,0.1,0.2,0.1,0.2,0.3C13.2,13.2,13.2,15.4,13.2,17.6z" id="XMLID_738_"/><path class="st1" d="M26.3,10.9c0,0,0,0.1,0,0.1c-1.1,1.9-2.3,3.7-3.4,5.6c-0.9,1.4-1.8,2.9-2.6,4.3    c-0.1,0.1-0.1,0.1-0.2,0c-0.8-1.3-1.6-2.6-2.4-4C17,16,16.4,15,15.8,14.1c-0.1-0.1-0.1-0.1,0-0.2c0.5-0.9,1.1-1.7,1.6-2.6    c0.7-1.1,1.4-2.3,2.1-3.4c0.2-0.3,0.3-0.3,0.6-0.2c0.8,0.4,1.7,0.8,2.5,1.3c1.2,0.6,2.3,1.2,3.5,1.7    C26.2,10.7,26.3,10.7,26.3,10.9z" id="XMLID_737_"/><path class="st1" d="M26.4,18.1c0,2,0,3.9,0,5.9c0,0.1,0,0.2,0,0.3c0,0.3-0.3,0.4-0.5,0.3    c-0.3-0.1-0.5-0.2-0.7-0.4c-0.8-0.4-1.7-0.8-2.5-1.3c-0.7-0.4-1.5-0.7-2.2-1.1c-0.1,0-0.1-0.1,0-0.2c0.7-1.1,1.4-2.2,2-3.3    c0.4-0.7,0.8-1.4,1.2-2c0.8-1.2,1.5-2.5,2.3-3.7c0.1-0.2,0.2-0.4,0.4-0.6c0,0,0-0.1,0.1-0.1c0,0,0,0.1,0,0.1c0,0,0,0.1,0,0.1    C26.4,14.1,26.4,16.1,26.4,18.1z" id="XMLID_736_"/><path class="st1" d="M13.7,15.1c0-1.1,0-2.2,0-3.2c0,0,0-0.1,0-0.1c0.1,0,0.1,0.1,0.1,0.1c0.6,1,1.2,2,1.8,2.9    c1,1.7,2,3.3,3.1,5c0.3,0.5,0.7,1.1,1,1.6c0,0,0.1,0.1,0,0.1c0,0-0.1,0-0.1,0c-1.2-0.6-2.4-1.2-3.6-1.8c-0.7-0.4-1.5-0.7-2.2-1.1    c-0.1,0-0.1-0.1-0.1-0.2C13.7,17.3,13.7,16.2,13.7,15.1z" id="XMLID_735_"/></g></g></svg>