<?xml version="1.0" ?><svg height="32px" id="Share" style="enable-background:new 0 0 32 32;" version="1.0" viewBox="0 0 32 32" width="32px" xml:space="preserve" xmlns="http://www.w3.org/2000/svg" xmlns:xlink="http://www.w3.org/1999/xlink"><style type="text/css">
	.Drop_x0020_Shadow{fill:none;}
	.Round_x0020_Corners_x0020_2_x0020_pt{fill:#FFFFFF;stroke:#000000;stroke-miterlimit:10;}
	.Live_x0020_Reflect_x0020_X{fill:none;}
	.Bevel_x0020_Soft{fill:url(#SVGID_1_);}
	.Dusk{fill:#FFFFFF;}
	.Foliage_GS{fill:#FFDD00;}
	.Pompadour_GS{fill-rule:evenodd;clip-rule:evenodd;fill:#44ADE2;}
	.st0{fill:#BE1E2D;}
	.st1{fill:#FFFFFF;}
</style><linearGradient gradientUnits="userSpaceOnUse" id="SVGID_1_" x1="0" x2="0.7071" y1="-141" y2="-140.2929"><stop offset="0" style="stop-color:#DEDFE3"/><stop offset="0.1738" style="stop-color:#D8D9DD"/><stop offset="0.352" style="stop-color:#C9CACD"/><stop offset="0.5323" style="stop-color:#B4B5B8"/><stop offset="0.7139" style="stop-color:#989A9C"/><stop offset="0.8949" style="stop-color:#797C7E"/><stop offset="1" style="stop-color:#656B6C"/></linearGradient><g id="XMLID_19_"><circle class="st0" cx="16" cy="15.5" id="XMLID_855_" r="15.1"/><g id="XMLID_776_"><g id="share-alt_4_"><path class="st1" d="M24.3,12.4c-0.9,0-1.7,0.3-2.2,0.9l-7.8-4.5c0.1-0.2,0.1-0.6,0.1-0.8c0-1.9-1.4-3.3-3.3-3.3     S7.8,6.1,7.8,8s1.4,3.3,3.3,3.3c0.9,0,1.7-0.3,2.2-0.9l7.8,4.5C21,15.2,21,15.5,21,15.7s0,0.6,0.1,0.8l-7.8,4.6     c-0.6-0.6-1.3-0.9-2.2-0.9c-1.8,0-3.2,1.4-3.2,3.2s1.4,3.2,3.2,3.2s3.2-1.4,3.2-3.2c0-0.2,0-0.4-0.1-0.8L22,18     c0.6,0.6,1.3,0.9,2.2,0.9c1.9,0,3.3-1.4,3.3-3.3S26.2,12.4,24.3,12.4z" id="XMLID_777_"/></g></g></g></svg>