<svg xmlns="http://www.w3.org/2000/svg" xmlns:xlink="http://www.w3.org/1999/xlink" version="1.1" x="0px" y="0px" viewBox="0 0 100 125" enable-background="new 0 0 100 100" xml:space="preserve"><path d="M85.217,16.341H63.696c-5.403,0-9.783,4.38-9.783,9.784v21.52c0,5.404,4.38,9.784,9.783,9.784h17.608v1.311  c0,6.189-5.047,11.226-11.25,11.226c-3.783,0-6.849,3.065-6.849,6.848s3.065,6.848,6.849,6.848C83.81,83.659,95,72.479,95,58.738  V26.125C95,20.721,90.62,16.341,85.217,16.341z"/><path d="M36.303,16.341h-21.52C9.38,16.341,5,20.721,5,26.125v21.52c0,5.404,4.38,9.784,9.784,9.784h17.607v1.311  c0,6.189-5.047,11.226-11.25,11.226c-3.782,0-6.848,3.065-6.848,6.848s3.066,6.848,6.848,6.848c13.755,0,24.946-11.18,24.946-24.921  V26.125C46.087,20.721,41.707,16.341,36.303,16.341z"/><text x="0" y="115" fill="#000000" font-size="5px" font-weight="bold" font-family="'Helvetica Neue', Helvetica, Arial-Unicode, Arial, Sans-serif">Created by Gabriele Malaspina</text><text x="0" y="120" fill="#000000" font-size="5px" font-weight="bold" font-family="'Helvetica Neue', Helvetica, Arial-Unicode, Arial, Sans-serif">from the Noun Project</text></svg>