<?xml version="1.0" encoding="utf-8"?>
<!-- Generator: Adobe Illustrator 17.1.0, SVG Export Plug-In . SVG Version: 6.00 Build 0)  -->
<!DOCTYPE svg PUBLIC "-//W3C//DTD SVG 1.1//EN" "http://www.w3.org/Graphics/SVG/1.1/DTD/svg11.dtd">
<svg version="1.1" id="Layer_1" xmlns="http://www.w3.org/2000/svg" xmlns:xlink="http://www.w3.org/1999/xlink" x="0px" y="0px"
	 viewBox="0 0 360 360" enable-background="new 0 0 360 360" xml:space="preserve">
<path fill="#F9F5F2" stroke="#000000" stroke-width="6.4795" stroke-miterlimit="10" d="M331.9,263.7h-39.6l47.5,64.8l-122-61.6
	L24,263.7c-10.7,0-19.4-8.7-19.4-19.4V64.6c0-10.7,8.7-19.4,19.4-19.4h307.9c10.7,0,19.4,8.7,21.1,19.4v179.7
	C351.3,255,342.6,263.7,331.9,263.7z"/>
<path fill="#EDB188" stroke="#000000" stroke-width="4.8596" stroke-miterlimit="10" d="M267.5,179.6c-1,0.2,0.1-1.8,0.8-1
	s0,2-0.6,2.8c-18.4,22.7-43.4,40.1-71.1,49.5c-16.2,5.5-35.7,7.8-49.2-2.8c-7.3-5.7-11.7-14.4-18.4-20.9c-6-5.8-13.6-9.7-20.2-14.8
	c-6.6-5.1-12.5-12.3-12.6-20.7c-0.1-4.8,2.7-10.2,7.4-10.8c-9.1,2.4-20.4,1.7-27.4-4.5c-2.8-2.5-5.4-5.5-6.3-9.1
	c-0.8-3.7,0.7-8.1,4.2-9.4c1.3-0.5,2.7-0.6,4.1-0.5c6.5,0.2,13,2.9,17.7,7.5l0.4-37.2l10-19.5l3.7-5.2l144,42.7l0.6,33.4
	c5.7-8.5,17.2-12.5,26.9-9.3c2.8,0.9,5.6,2.5,7.1,5.1c2.5,4.6,0.1,10.3-3,14.5C280.4,176.2,275.4,176.3,267.5,179.6z"/>
<path fill="#DDB36B" stroke="#000000" stroke-width="3.2397" stroke-miterlimit="10" d="M94.1,121.5c-0.1,3.9,0.2,8,2.3,11.2
	c2.1,3.2,6.7,5.1,9.9,3.1c2.2-1.4,3.3-4.1,4-6.7c4.1-15.2,3.1-31.7-3-46.2c-1.1,0-2.1,0-3.2,0.1c-0.1,1.3-0.2,2.6-0.2,3.9
	c-1.7,0.4-2.6,2.2-3.3,3.8C96.5,100.4,94.3,111,94.1,121.5z"/>
<path fill="#DDB36B" stroke="#000000" stroke-width="3.2397" stroke-miterlimit="10" d="M254.6,150.3c3.9,1.5,7-4.2,8.3-9.2
	c1.2-4.4,1.5-10.5-1.7-12.5c-2.3-1.5-5.8-0.1-7.2-2.9c-1.7,4.2-2.8,8.8-3.2,13.5C250.5,143.5,251.3,149,254.6,150.3z"/>
<path opacity="0.77" fill="#F3DFC9" d="M128.9,144.5c0.4-4.5,5.9-6.3,10.4-6.6c9-0.7,18.1,0.4,26.7,3.1c1,2.9-0.7,6.2-3.2,8
	c-2.5,1.8-5.7,2.3-8.8,2.6c-3.9,0.4-7.9,0.5-11.8,0.6c-2.9,0.1-5.9,0.1-8.6-1C130.9,150.1,128.6,147.4,128.9,144.5z"/>
<path opacity="0.77" fill="#F3DFC9" d="M198.5,144.5c0.4-4.5,5.9-6.3,10.4-6.6c9-0.7,18.1,0.4,26.7,3.1c1,2.9-0.7,6.2-3.2,8
	c-2.5,1.8-5.7,2.3-8.8,2.6c-3.9,0.4-7.9,0.5-11.8,0.6c-2.9,0.1-5.9,0.1-8.6-1C200.5,150.1,198.3,147.4,198.5,144.5z"/>
<path fill="none" stroke="#000000" stroke-width="3.2397" stroke-miterlimit="10" d="M157.2,186.9c-0.5-0.4-1-0.8-1.6-1.2
	c26.9-10.2,56.1-14.4,84.8-12c-2.1-1.6-4.2-3.1-6.2-4.7"/>
<circle cx="147.6" cy="145" r="4.5"/>
<circle cx="217.2" cy="145" r="4.5"/>
<g>
	<path fill="none" stroke="#B68D4E" stroke-width="3.2397" stroke-miterlimit="10" d="M152,129.7c2.8,1.5,6,2.3,9.2,2.3
		C158.5,131.1,154.7,130.7,152,129.7z"/>
	<path fill="none" stroke="#B68D4E" stroke-width="3.2397" stroke-miterlimit="10" d="M154.1,134.2c0.1,0.3-4.3-3.2-5.6-3.7
		c-2.9-1.2-7.3-1.8-10.4-1.6"/>
	<path fill="none" stroke="#B68D4E" stroke-width="3.2397" stroke-miterlimit="10" d="M144.4,133.6c0.2-2.1-1.2-4.1-3-5.2
		c-1.8-1.1-4-1.4-6.1-1.7"/>
	<path fill="none" stroke="#B68D4E" stroke-width="3.2397" stroke-miterlimit="10" d="M136.7,133.7c2.2-2.1,1.7-6.3-0.9-7.9
		c-0.4,0.3-0.5,0.8-0.4,1.2"/>
	<path fill="none" stroke="#B68D4E" stroke-width="3.2397" stroke-miterlimit="10" d="M131.8,135.3c2.2-2.1,1.7-6.3-0.9-7.9
		c-0.4,0.3-0.5,0.8-0.4,1.2"/>
	<path fill="none" stroke="#B68D4E" stroke-width="3.2397" stroke-miterlimit="10" d="M137.4,133.1c0.3-1.9,0.6-3.8,0.8-5.7
		c-1.6-0.8-3.3-1.6-4.9-2.4c0.3,0.3,0.5,0.8,0.4,1.3"/>
	<path fill="none" stroke="#B68D4E" stroke-width="3.2397" stroke-miterlimit="10" d="M127.3,137.7c-0.2-1.1-0.2-2.2-0.1-3.3
		c-1.3-1-2.8-1.6-4.5-1.7"/>
	<path fill="none" stroke="#B68D4E" stroke-width="3.2397" stroke-miterlimit="10" d="M133.8,134.4c-0.2-1.1-0.2-2.2-0.1-3.3
		c-1.3-1-2.8-1.6-4.5-1.7"/>
	<path fill="none" stroke="#B68D4E" stroke-width="3.2397" stroke-miterlimit="10" d="M140,132c0.5-1.7,3.3-1.9,4.1-0.4"/>
	<path fill="none" stroke="#B68D4E" stroke-width="3.2397" stroke-miterlimit="10" d="M153.5,131.6c0.1,0.1,0.3,0.3,0.4,0.4"/>
	<path fill="none" stroke="#B68D4E" stroke-width="3.2397" stroke-miterlimit="10" d="M160.4,134.5c-1.7-1.5-3.5-3.1-5.5-4.1
		c-2-1.1-4.4-1.6-6.7-1"/>
	<path fill="none" stroke="#B68D4E" stroke-width="3.2397" stroke-miterlimit="10" d="M146.5,133.1c0.8-1.2,0.2-2.9-0.8-3.9
		c-1.1-1-2.5-1.5-3.9-1.9c-0.4,0.5-0.8,1-1.2,1.5"/>
	<path fill="none" stroke="#B68D4E" stroke-width="3.2397" stroke-miterlimit="10" d="M129.7,138.3c1.4-1.1,1.5-3.4,0.6-5
		c-0.9-1.6-2.5-2.7-4-3.7c-0.4-0.3-0.9-0.6-1.4-0.7"/>
	<path fill="none" stroke="#B68D4E" stroke-width="3.2397" stroke-miterlimit="10" d="M134.6,133.4c1.4-1.1,1.5-3.4,0.6-5
		c-0.9-1.6-2.5-2.7-4-3.7c-0.4-0.3-0.9-0.6-1.4-0.7"/>
</g>
<g>
	<path fill="none" stroke="#B68D4E" stroke-width="3.2397" stroke-miterlimit="10" d="M228.3,131.3c2.5,1.9,5.6,3.2,8.7,3.7
		C234.5,133.6,230.8,132.6,228.3,131.3z"/>
	<path fill="none" stroke="#B68D4E" stroke-width="3.2397" stroke-miterlimit="10" d="M229.6,136c0,0.3-3.8-3.8-4.9-4.5
		c-2.6-1.6-7-2.9-10-3.2"/>
	<path fill="none" stroke="#B68D4E" stroke-width="3.2397" stroke-miterlimit="10" d="M220.1,134c0.6-2-0.6-4.3-2.2-5.6
		c-1.7-1.3-3.7-2-5.8-2.6"/>
	<path fill="none" stroke="#B68D4E" stroke-width="3.2397" stroke-miterlimit="10" d="M212.5,132.9c2.5-1.7,2.7-6,0.3-7.9
		c-0.4,0.2-0.7,0.7-0.6,1.2"/>
	<path fill="none" stroke="#B68D4E" stroke-width="3.2397" stroke-miterlimit="10" d="M207.4,133.7c2.5-1.7,2.7-6,0.3-7.9
		c-0.4,0.2-0.7,0.7-0.6,1.2"/>
	<path fill="none" stroke="#B68D4E" stroke-width="3.2397" stroke-miterlimit="10" d="M213.3,132.4c0.6-1.8,1.1-3.6,1.7-5.5
		c-1.5-1.1-3-2.1-4.5-3.2c0.3,0.4,0.3,0.9,0.2,1.3"/>
	<path fill="none" stroke="#B68D4E" stroke-width="3.2397" stroke-miterlimit="10" d="M202.6,135.4c0-1.1,0.1-2.2,0.4-3.3
		c-1.1-1.2-2.6-2-4.1-2.4"/>
	<path fill="none" stroke="#B68D4E" stroke-width="3.2397" stroke-miterlimit="10" d="M209.5,133.2c0-1.1,0.1-2.2,0.4-3.3
		c-1.1-1.2-2.6-2-4.1-2.4"/>
	<path fill="none" stroke="#B68D4E" stroke-width="3.2397" stroke-miterlimit="10" d="M216,131.7c0.8-1.6,3.5-1.4,4.1,0.2"/>
	<path fill="none" stroke="#B68D4E" stroke-width="3.2397" stroke-miterlimit="10" d="M229.5,133.3c0.1,0.2,0.2,0.3,0.3,0.5"/>
	<path fill="none" stroke="#B68D4E" stroke-width="3.2397" stroke-miterlimit="10" d="M235.8,137.3c-1.5-1.8-3-3.5-4.8-4.9
		s-4.1-2.3-6.4-2"/>
	<path fill="none" stroke="#B68D4E" stroke-width="3.2397" stroke-miterlimit="10" d="M222.3,133.7c0.9-1.1,0.7-2.9-0.2-4
		c-0.9-1.1-2.3-1.8-3.6-2.5c-0.5,0.4-0.9,0.8-1.4,1.3"/>
	<path fill="none" stroke="#B68D4E" stroke-width="3.2397" stroke-miterlimit="10" d="M204.9,136.3c1.6-0.9,2-3.2,1.3-4.9
		c-0.7-1.7-2.1-3-3.4-4.2c-0.4-0.4-0.8-0.7-1.3-0.9"/>
	<path fill="none" stroke="#B68D4E" stroke-width="3.2397" stroke-miterlimit="10" d="M210.4,132.2c1.6-0.9,2-3.2,1.3-4.9
		c-0.7-1.7-2.1-3-3.4-4.2c-0.4-0.4-0.8-0.7-1.3-0.9"/>
</g>
<path fill="#DDB36B" stroke="#000000" stroke-width="3.2397" stroke-miterlimit="10" d="M107.6,71.1c-0.7,1.2-0.5,2.7-0.1,4.1
	c4.8,19.6,20.9,35,39.2,43.3s38.9,10.4,59,11.1c23.7,0.8,49.9-1.4,66.4-18.3c-2.2-0.1-4.5-0.3-6.7-0.4c0.9-1.5,1.8-2.9,2.7-4.4
	c-8.2-7.8-19.2-12.1-30-15.6C197.9,77.3,155.4,70,112.9,69.2C110.9,69.2,108.6,69.4,107.6,71.1z"/>
<path fill="none" stroke="#000000" stroke-width="3.2397" stroke-miterlimit="10" d="M183.1,143.7c-0.9,0.4-1.8,0.7-2.6,1.1
	c2.7,2.2,6.3,3.1,9.7,4s6.9,1.9,9.6,4.2s4.2,6.3,2.6,9.4c-4,1.4-8.2,2-12.4,1.7c-1.7-0.1-3.9-0.9-3.7-2.6c0.7-0.4,1.4-0.8,2.1-1.1
	c-2.1-2.8-5.6-4.6-9.1-4.6c-0.3,0.9-0.7,1.8-0.4,2.7c0.3,0.9,1.5,1.5,2.2,0.9"/>
<path fill="none" stroke="#000000" stroke-width="3.2397" stroke-miterlimit="10" d="M136.9,81.3c-0.3-0.3-0.5-0.5-0.8-0.8
	c5.6,3,7.6,3.6,12.3,7.9c15.7,13.9,39.8,19,58.3,9.2c-0.2-0.9-0.4-1.7-0.6-2.6"/>
<path fill="none" stroke="#000000" stroke-width="3.2397" stroke-miterlimit="10" d="M157.7,81.3c1.1-0.1,2.2,0.2,3.3,0.5
	c4.7,1.5,9.3,2.9,14,4.4c1.1,0.3,2.2,0.7,3.3,0.5c1.5-0.2,2.7-1.4,3.8-2.5c0.4-0.4,0.9-0.9,1-1.5c0.1-0.6-0.2-1.3-0.8-1.3"/>
</svg>
