<?xml version="1.0" ?><svg height="32px" id="Twitter" style="enable-background:new 0 0 32 32;" version="1.0" viewBox="0 0 32 32" width="32px" xml:space="preserve" xmlns="http://www.w3.org/2000/svg" xmlns:xlink="http://www.w3.org/1999/xlink"><style type="text/css">
	.Drop_x0020_Shadow{fill:none;}
	.Round_x0020_Corners_x0020_2_x0020_pt{fill:#FFFFFF;stroke:#000000;stroke-miterlimit:10;}
	.Live_x0020_Reflect_x0020_X{fill:none;}
	.Bevel_x0020_Soft{fill:url(#SVGID_1_);}
	.Dusk{fill:#FFFFFF;}
	.Foliage_GS{fill:#FFDD00;}
	.Pompadour_GS{fill-rule:evenodd;clip-rule:evenodd;fill:#44ADE2;}
	.st0{fill:#BE1E2D;}
	.st1{fill:#FFFFFF;}
</style><linearGradient gradientUnits="userSpaceOnUse" id="SVGID_1_" x1="-235" x2="-234.2929" y1="0" y2="0.7071"><stop offset="0" style="stop-color:#DEDFE3"/><stop offset="0.1738" style="stop-color:#D8D9DD"/><stop offset="0.352" style="stop-color:#C9CACD"/><stop offset="0.5323" style="stop-color:#B4B5B8"/><stop offset="0.7139" style="stop-color:#989A9C"/><stop offset="0.8949" style="stop-color:#797C7E"/><stop offset="1" style="stop-color:#656B6C"/></linearGradient><g id="XMLID_6_"><circle class="st0" cx="16" cy="16.3" id="XMLID_871_" r="15.1"/><g id="zkT7EV.tif_4_"><g id="XMLID_863_"><path class="st1" d="M20,8.7c0.1,0,0.3,0,0.4,0c0,0,0.1,0,0.1,0c0.3,0,0.5,0.1,0.8,0.1c0.8,0.2,1.5,0.6,2.1,1.2     c0.1,0.1,0.1,0.1,0.2,0.1c0.9-0.2,1.8-0.5,2.6-1c0,0,0.1,0,0.1-0.1c0,0,0,0,0,0c-0.1,0.2-0.2,0.5-0.3,0.7     c-0.4,0.7-0.9,1.3-1.6,1.7c0.9-0.1,1.7-0.3,2.5-0.7c-0.3,0.5-0.7,0.9-1,1.3c-0.4,0.4-0.7,0.7-1.2,1c0,0,0,0.1-0.1,0.1     c0,0.5,0,1.1,0,1.6c0,0.6-0.2,1.2-0.3,1.9c-0.5,2.3-1.6,4.3-3.2,6c-1.1,1.2-2.3,2.1-3.7,2.7c-1.8,0.9-3.8,1.2-5.8,1.2     c-0.8,0-1.6-0.1-2.4-0.3c-1.5-0.3-3-0.9-4.3-1.7c0,0,0,0-0.1-0.1c1.2,0.1,2.4,0,3.5-0.3c1.1-0.3,2.2-0.8,3.1-1.6     c-2.5-0.1-3.8-1.9-4.2-3.1c0.2,0,0.3,0,0.5,0.1c0.2,0,0.3,0,0.5,0c0.2,0,0.3,0,0.5,0c0.2,0,0.3-0.1,0.5-0.1     c-1-0.3-1.9-0.8-2.6-1.6c-0.7-0.8-1-1.8-1-2.8c0.3,0.1,0.6,0.3,1,0.4c0.3,0.1,0.7,0.2,1,0.2c-2.3-1.6-2.3-4.5-1.4-6     c2.4,2.9,5.5,4.4,9.3,4.7c0,0,0,0,0,0c-0.1-0.6-0.1-1.1,0-1.7c0.1-0.9,0.5-1.6,1.1-2.3c0.7-0.8,1.5-1.2,2.5-1.4     C19.6,8.7,19.8,8.7,20,8.7z" id="XMLID_864_"/></g></g></g></svg>