<?xml version="1.0" encoding="utf-8"?>
<!-- Generator: Adobe Illustrator 17.1.0, SVG Export Plug-In . SVG Version: 6.00 Build 0)  -->
<!DOCTYPE svg PUBLIC "-//W3C//DTD SVG 1.1//EN" "http://www.w3.org/Graphics/SVG/1.1/DTD/svg11.dtd">
<svg version="1.1" id="Layer_1" xmlns="http://www.w3.org/2000/svg" xmlns:xlink="http://www.w3.org/1999/xlink" x="0px" y="0px"
	 viewBox="0 0 1920 1080" enable-background="new 0 0 1920 1080" xml:space="preserve">
<path fill="#F9F5F2" stroke="#000000" stroke-width="6.3146" stroke-miterlimit="10" d="M1103.6,704.3H1065l46.3,63.1l-118.9-60
	l-188.9-3.2c-10.4,0-18.9-8.5-18.9-18.9V510.2c0-10.4,8.5-18.9,18.9-18.9h300.1c10.4,0,18.9,8.5,20.5,18.9v175.1
	C1122.6,695.7,1114,704.3,1103.6,704.3z"/>
<path fill="#EDB188" stroke="#000000" stroke-width="4.736" stroke-miterlimit="10" d="M1040.8,622.3c-1,0.2,0.1-1.8,0.8-1
	c0.7,0.8,0,2-0.6,2.8c-18,22.2-42.3,39.1-69.3,48.2c-15.8,5.3-34.8,7.6-47.9-2.7c-7.1-5.6-11.4-14-17.9-20.4
	c-5.8-5.7-13.2-9.4-19.6-14.5s-12.1-12-12.3-20.2c-0.1-4.7,2.6-10,7.2-10.5c-8.8,2.3-19.9,1.6-26.7-4.4c-2.8-2.4-5.3-5.3-6.1-8.9
	c-0.8-3.6,0.7-7.9,4.1-9.2c1.3-0.5,2.6-0.6,4-0.5c6.4,0.2,12.6,2.9,17.2,7.3l0.4-36.3l9.7-19l3.6-5l140.3,41.7l0.6,32.5
	c5.5-8.3,16.8-12.2,26.2-9.1c2.8,0.9,5.5,2.4,6.9,5c2.5,4.4,0.1,10-2.9,14.1C1053.5,618.9,1048.6,619.1,1040.8,622.3z"/>
<path fill="#DDB36B" stroke="#000000" stroke-width="3.1573" stroke-miterlimit="10" d="M871.9,565.7c-0.1,3.8,0.1,7.7,2.2,10.9
	c2,3.1,6.5,5,9.7,3c2.2-1.4,3.2-4,3.9-6.5c4-14.8,3-30.9-2.9-45.1c-1,0-2.1,0-3.1,0.1c-0.1,1.3-0.2,2.5-0.2,3.8
	c-1.7,0.3-2.6,2.1-3.2,3.7C874.2,545.1,872.1,555.4,871.9,565.7z"/>
<path fill="#DDB36B" stroke="#000000" stroke-width="3.1573" stroke-miterlimit="10" d="M1028.3,593.7c3.8,1.4,6.8-4.1,8.1-9
	c1.1-4.3,1.5-10.2-1.7-12.2c-2.3-1.4-5.6-0.1-7-2.9c-1.7,4.1-2.7,8.6-3.1,13.1C1024.3,587.1,1025.1,592.5,1028.3,593.7z"/>
<path opacity="0.77" fill="#F3DFC9" d="M905.8,588.1c0.4-4.4,5.8-6.1,10.1-6.5c8.8-0.7,17.7,0.4,26,3c1,2.8-0.6,6.1-3.1,7.8
	c-2.5,1.7-5.6,2.3-8.5,2.6c-3.8,0.4-7.7,0.5-11.5,0.6c-2.8,0.1-5.8,0.1-8.4-1S905.5,590.9,905.8,588.1z"/>
<path opacity="0.77" fill="#F3DFC9" d="M973.6,588.1c0.4-4.4,5.8-6.1,10.1-6.5c8.8-0.7,17.7,0.4,26,3c1,2.8-0.6,6.1-3.1,7.8
	c-2.5,1.7-5.6,2.3-8.5,2.6c-3.8,0.4-7.7,0.5-11.5,0.6c-2.8,0.1-5.8,0.1-8.4-1S973.4,590.9,973.6,588.1z"/>
<path fill="none" stroke="#000000" stroke-width="3.1573" stroke-miterlimit="10" d="M933.3,629.3c-0.5-0.4-1-0.8-1.5-1.2
	c26.2-10,54.7-14,82.6-11.7c-2-1.5-4.1-3.1-6.1-4.6"/>
<circle cx="924" cy="588.5" r="4.4"/>
<circle cx="991.9" cy="588.5" r="4.4"/>
<g>
	<path fill="none" stroke="#B68D4E" stroke-width="3.1573" stroke-miterlimit="10" d="M928.3,573.7c2.7,1.5,5.9,2.3,9,2.2
		C934.7,575,930.9,574.6,928.3,573.7z"/>
	<path fill="none" stroke="#B68D4E" stroke-width="3.1573" stroke-miterlimit="10" d="M930.3,578c0.1,0.2-4.2-3.1-5.4-3.6
		c-2.8-1.2-7.1-1.8-10.1-1.6"/>
	<path fill="none" stroke="#B68D4E" stroke-width="3.1573" stroke-miterlimit="10" d="M920.9,577.5c0.2-2.1-1.2-4-3-5.1
		c-1.8-1-3.9-1.3-5.9-1.6"/>
	<path fill="none" stroke="#B68D4E" stroke-width="3.1573" stroke-miterlimit="10" d="M913.3,577.5c2.2-2.1,1.7-6.2-0.9-7.7
		c-0.4,0.3-0.5,0.8-0.4,1.2"/>
	<path fill="none" stroke="#B68D4E" stroke-width="3.1573" stroke-miterlimit="10" d="M908.6,579.1c2.2-2.1,1.7-6.2-0.9-7.7
		c-0.4,0.3-0.5,0.8-0.4,1.2"/>
	<path fill="none" stroke="#B68D4E" stroke-width="3.1573" stroke-miterlimit="10" d="M914.1,577c0.3-1.8,0.5-3.7,0.8-5.5
		c-1.6-0.8-3.2-1.6-4.8-2.4c0.3,0.3,0.5,0.8,0.3,1.2"/>
	<path fill="none" stroke="#B68D4E" stroke-width="3.1573" stroke-miterlimit="10" d="M904.3,581.4c-0.1-1.1-0.2-2.1-0.1-3.2
		c-1.2-1-2.8-1.6-4.3-1.7"/>
	<path fill="none" stroke="#B68D4E" stroke-width="3.1573" stroke-miterlimit="10" d="M910.6,578.3c-0.1-1.1-0.2-2.1-0.1-3.2
		c-1.2-1-2.8-1.6-4.3-1.7"/>
	<path fill="none" stroke="#B68D4E" stroke-width="3.1573" stroke-miterlimit="10" d="M916.6,575.9c0.5-1.6,3.2-1.9,4-0.4"/>
	<path fill="none" stroke="#B68D4E" stroke-width="3.1573" stroke-miterlimit="10" d="M929.8,575.4c0.1,0.1,0.3,0.3,0.4,0.4"/>
	<path fill="none" stroke="#B68D4E" stroke-width="3.1573" stroke-miterlimit="10" d="M936.4,578.3c-1.7-1.5-3.4-3-5.4-4
		c-2-1-4.3-1.6-6.5-1"/>
	<path fill="none" stroke="#B68D4E" stroke-width="3.1573" stroke-miterlimit="10" d="M922.9,576.9c0.7-1.2,0.2-2.9-0.8-3.8
		c-1-1-2.4-1.4-3.8-1.8c-0.4,0.5-0.8,1-1.1,1.4"/>
	<path fill="none" stroke="#B68D4E" stroke-width="3.1573" stroke-miterlimit="10" d="M906.6,582c1.4-1.1,1.4-3.3,0.5-4.9
		c-0.9-1.6-2.4-2.6-3.9-3.6c-0.4-0.3-0.9-0.6-1.4-0.7"/>
	<path fill="none" stroke="#B68D4E" stroke-width="3.1573" stroke-miterlimit="10" d="M911.3,577.3c1.4-1.1,1.4-3.3,0.5-4.9
		s-2.4-2.6-3.9-3.6c-0.4-0.3-0.9-0.6-1.4-0.7"/>
</g>
<g>
	<path fill="none" stroke="#B68D4E" stroke-width="3.1573" stroke-miterlimit="10" d="M1002.6,575.2c2.5,1.9,5.4,3.1,8.5,3.6
		C1008.7,577.5,1005.1,576.5,1002.6,575.2z"/>
	<path fill="none" stroke="#B68D4E" stroke-width="3.1573" stroke-miterlimit="10" d="M1003.9,579.8c0,0.3-3.7-3.7-4.8-4.4
		c-2.6-1.6-6.8-2.8-9.7-3.1"/>
	<path fill="none" stroke="#B68D4E" stroke-width="3.1573" stroke-miterlimit="10" d="M994.7,577.8c0.5-2-0.6-4.1-2.2-5.4
		c-1.6-1.3-3.6-1.9-5.6-2.5"/>
	<path fill="none" stroke="#B68D4E" stroke-width="3.1573" stroke-miterlimit="10" d="M987.2,576.7c2.4-1.7,2.6-5.8,0.3-7.7
		c-0.4,0.2-0.6,0.7-0.6,1.1"/>
	<path fill="none" stroke="#B68D4E" stroke-width="3.1573" stroke-miterlimit="10" d="M982.3,577.6c2.4-1.7,2.6-5.8,0.3-7.7
		c-0.4,0.2-0.6,0.7-0.6,1.1"/>
	<path fill="none" stroke="#B68D4E" stroke-width="3.1573" stroke-miterlimit="10" d="M988,576.3c0.5-1.8,1.1-3.6,1.6-5.3
		c-1.5-1-2.9-2-4.4-3.1c0.3,0.3,0.3,0.9,0.2,1.3"/>
	<path fill="none" stroke="#B68D4E" stroke-width="3.1573" stroke-miterlimit="10" d="M977.7,579.2c0-1.1,0.1-2.1,0.4-3.2
		c-1.1-1.2-2.5-2-4-2.3"/>
	<path fill="none" stroke="#B68D4E" stroke-width="3.1573" stroke-miterlimit="10" d="M984.4,577c0-1.1,0.1-2.1,0.4-3.2
		c-1.1-1.2-2.5-2-4-2.3"/>
	<path fill="none" stroke="#B68D4E" stroke-width="3.1573" stroke-miterlimit="10" d="M990.6,575.6c0.8-1.5,3.5-1.4,4,0.2"/>
	<path fill="none" stroke="#B68D4E" stroke-width="3.1573" stroke-miterlimit="10" d="M1003.8,577.2c0.1,0.2,0.2,0.3,0.3,0.5"/>
	<path fill="none" stroke="#B68D4E" stroke-width="3.1573" stroke-miterlimit="10" d="M1009.9,581c-1.4-1.7-2.9-3.5-4.7-4.8
		c-1.8-1.3-4-2.2-6.3-1.9"/>
	<path fill="none" stroke="#B68D4E" stroke-width="3.1573" stroke-miterlimit="10" d="M996.8,577.6c0.9-1.1,0.6-2.8-0.2-3.9
		c-0.9-1.1-2.2-1.8-3.5-2.4c-0.5,0.4-0.9,0.8-1.4,1.2"/>
	<path fill="none" stroke="#B68D4E" stroke-width="3.1573" stroke-miterlimit="10" d="M979.8,580.1c1.6-0.9,1.9-3.1,1.3-4.8
		s-2-2.9-3.3-4.1c-0.4-0.4-0.8-0.7-1.3-0.9"/>
	<path fill="none" stroke="#B68D4E" stroke-width="3.1573" stroke-miterlimit="10" d="M985.2,576.1c1.6-0.9,1.9-3.1,1.3-4.8
		s-2-2.9-3.3-4.1c-0.4-0.4-0.8-0.7-1.3-0.9"/>
</g>
<path fill="#DDB36B" stroke="#000000" stroke-width="3.1573" stroke-miterlimit="10" d="M885,516.5c-0.7,1.2-0.5,2.6-0.1,4
	c4.7,19.1,20.3,34.1,38.2,42.2c17.9,8.1,37.9,10.2,57.5,10.8c23.1,0.8,48.6-1.4,64.7-17.8c-2.2-0.1-4.3-0.3-6.5-0.4
	c0.9-1.4,1.8-2.9,2.6-4.3c-8-7.6-18.7-11.7-29.2-15.2c-39.3-13.1-80.7-20.2-122.1-20.9C888.3,514.7,886,514.9,885,516.5z"/>
<path fill="none" stroke="#000000" stroke-width="3.1573" stroke-miterlimit="10" d="M958.6,587.3c-0.9,0.3-1.7,0.7-2.6,1
	c2.7,2.1,6.1,3.1,9.4,3.9c3.3,0.9,6.7,1.8,9.3,4.1s4.1,6.1,2.6,9.2c-3.9,1.4-8,1.9-12.1,1.7c-1.7-0.1-3.8-0.9-3.7-2.6
	c0.7-0.4,1.4-0.7,2.1-1.1c-2.1-2.7-5.4-4.4-8.9-4.5c-0.3,0.9-0.6,1.8-0.4,2.7s1.5,1.5,2.1,0.8"/>
<path fill="none" stroke="#000000" stroke-width="3.1573" stroke-miterlimit="10" d="M913.6,526.5c-0.3-0.3-0.5-0.5-0.8-0.8
	c5.4,3,7.4,3.5,12,7.7c15.3,13.5,38.8,18.5,56.8,9c-0.2-0.8-0.4-1.7-0.6-2.5"/>
<path fill="none" stroke="#000000" stroke-width="3.1573" stroke-miterlimit="10" d="M933.9,526.5c1.1-0.1,2.2,0.2,3.2,0.5
	c4.5,1.4,9.1,2.8,13.6,4.3c1,0.3,2.1,0.7,3.2,0.5c1.5-0.2,2.7-1.4,3.7-2.4c0.4-0.4,0.8-0.9,0.9-1.4c0.1-0.6-0.2-1.3-0.8-1.3"/>
<text transform="matrix(1 0 0 1 849.6673 404.9178)" font-family="'MyriadPro-Regular'" font-size="125.307">yes.</text>
</svg>
